<svg width="100px" height="100px" viewBox="0 0 264 280" version="1.1" xmlns="http://www.w3.org/2000/svg" xmlns:xlink="http://www.w3.org/1999/xlink"><g id="error-Top/Accessories/Carnival-Mask" transform="translate(62.000000, 93.000000)" stroke-width="1"><g><path d="M15,8 C3,-4 -3,-17 1,-27 C10,-18 16,-6 15,8 Z" fill="#D7263D"></path><path d="M15,7 C8,-4 3,-15 1,-26" fill="none" stroke="#000" stroke-opacity=".25" stroke-width=".9"></path><path d="M19,6 C14,-7 13,-21 18,-31 C24,-20 24,-6 19,6 Z" fill="#1FB5C2"></path><path d="M19,5 C17,-8 17,-20 18,-30" fill="none" stroke="#000" stroke-opacity=".25" stroke-width=".9"></path><path d="M23,6 C25,-7 30,-18 38,-24 C38,-12 32,-2 23,6 Z" fill="#E0218A"></path><path d="M23,5 C27,-6 32,-16 37,-23" fill="none" stroke="#000" stroke-opacity=".25" stroke-width=".9"></path><path d="M71,9 C58,4 40,0 25,3.5 C13,6.5 6.5,14 8,22 C9.5,30 19,36 31,36 C43,36 53,32.5 61,30.5 C65.5,29.4 68.5,27.6 71,27 C73.5,27.6 76.5,29.4 81,30.5 C89,32.5 99,36 111,36 C123,36 132.5,30 134,22 C135.5,14 129,6.5 117,3.5 C102,0 84,4 71,9 Z M33,19 C37,11.5 53,11.5 57,19 C53,25.5 37,25.5 33,19 Z M85,19 C89,11.5 105,11.5 109,19 C105,25.5 89,25.5 85,19 Z" fill="#F2B705" fill-rule="evenodd" stroke="#A87400" stroke-width="1.2"></path><path d="M24,8 C36,4 54,4 66,11" fill="none" stroke="#FFF" stroke-opacity=".45" stroke-width="1.6" stroke-linecap="round"></path><circle cx="16" cy="12" r="1.3" fill="#1FB5C2"></circle><circle cx="126" cy="12" r="1.3" fill="#1FB5C2"></circle><circle cx="12" cy="20" r="1.3" fill="#FFFFFF"></circle><circle cx="130" cy="20" r="1.3" fill="#FFFFFF"></circle><circle cx="15" cy="28" r="1.3" fill="#1FB5C2"></circle><circle cx="127" cy="28" r="1.3" fill="#1FB5C2"></circle><circle cx="24" cy="33" r="1.3" fill="#FFFFFF"></circle><circle cx="118" cy="33" r="1.3" fill="#FFFFFF"></circle><circle cx="36" cy="32.5" r="1.3" fill="#1FB5C2"></circle><circle cx="106" cy="32.5" r="1.3" fill="#1FB5C2"></circle><circle cx="52" cy="29" r="1.3" fill="#FFFFFF"></circle><circle cx="90" cy="29" r="1.3" fill="#FFFFFF"></circle><circle cx="24" cy="7" r="1.3" fill="#1FB5C2"></circle><circle cx="118" cy="7" r="1.3" fill="#1FB5C2"></circle><circle cx="38" cy="5" r="1.3" fill="#FFFFFF"></circle><circle cx="104" cy="5" r="1.3" fill="#FFFFFF"></circle><circle cx="54" cy="6.5" r="1.3" fill="#1FB5C2"></circle><circle cx="88" cy="6.5" r="1.3" fill="#1FB5C2"></circle><circle cx="64" cy="9.5" r="1.3" fill="#FFFFFF"></circle><circle cx="78" cy="9.5" r="1.3" fill="#FFFFFF"></circle><path d="M71,3.5 L74.8,9.5 L71,15.5 L67.2,9.5 Z" fill="#D7263D" stroke="#8E0F1E" stroke-width=".8"></path><path d="M70,6.5 L71,5 L72,6.5" fill="none" stroke="#FFF" stroke-width=".8"></path></g></g></svg>